<?xml version="1.0" encoding="us-ascii" standalone="no"?><svg xmlns="http://www.w3.org/2000/svg" xmlns:xlink="http://www.w3.org/1999/xlink" contentStyleType="text/css" height="417px" preserveAspectRatio="none" style="width:562px;height:417px;background:#FFFFFF;" version="1.1" viewBox="0 0 562 417" width="562px" zoomAndPan="magnify"><defs/><g><text fill="#000000" font-family="Verdana" font-size="22" font-weight="bold" lengthAdjust="spacing" textLength="126" x="213.5" y="35.4209">CAR SHOP</text><!--cluster id_001--><g id="cluster_id_001"><rect fill="#FFFFFF" height="353" rx="2.5" ry="2.5" style="stroke:#000000;stroke-width:1.0;" width="544" x="12" y="58.6094"/><text fill="#000000" font-family="Verdana" font-size="14" font-weight="bold" lengthAdjust="spacing" textLength="85" x="241.5" y="73.6045">DATABASE</text></g><!--class id_001--><g id="elem_id_001"><rect codeLine="9" fill="#FFFFFF" height="80.8594" id="id_001" rx="2.5" ry="2.5" style="stroke:#000000;stroke-width:1.0;" width="219.3333" x="312.5" y="106.1094"/><ellipse cx="398.4167" cy="126.2422" fill="#7FFFD4" rx="9" ry="9" style="stroke:#000000;stroke-width:1.0;"/><path d="M398.8542,123.7734 L400.6979,123.7734 L400.6979,125.3672 C400.6979,125.7578 400.7292,125.9297 400.8229,126.0703 C400.9792,126.3203 401.2604,126.4766 401.5573,126.4766 C401.8229,126.4766 402.0729,126.3516 402.2448,126.1328 C402.3854,125.9609 402.401,125.8359 402.401,125.3672 L402.401,122.0859 L393.6354,122.0859 L393.6354,125.3672 C393.6354,125.7578 393.6667,125.9297 393.7448,126.0703 C393.901,126.3359 394.1979,126.4766 394.4792,126.4766 C394.7604,126.4766 395.0104,126.3516 395.1823,126.1328 C395.2917,125.9609 395.3229,125.8203 395.3229,125.3672 L395.3229,123.7734 L397.151,123.7734 L397.151,130.2891 L396.0417,130.2891 C395.6042,130.2891 395.4792,130.3047 395.3229,130.4141 C395.0729,130.5703 394.9167,130.8516 394.9167,131.1484 C394.9167,131.3984 395.0573,131.6641 395.276,131.8203 C395.4323,131.9453 395.651,131.9922 396.0417,131.9922 L399.9792,131.9922 C400.3073,131.9922 400.5729,131.9453 400.6823,131.8672 C400.9479,131.7266 401.0885,131.4297 401.0885,131.1484 C401.0885,130.8672 400.9635,130.6172 400.7292,130.4453 C400.5729,130.3203 400.4323,130.2891 399.9792,130.2891 L398.8542,130.2891 L398.8542,123.7734 Z " fill="#000000"/><text fill="#000000" font-family="Verdana" font-size="12" font-style="italic" lengthAdjust="spacing" textLength="44" x="413.9167" y="122.248">&#171;table&#187;</text><text fill="#000000" font-family="Verdana" font-size="14" font-weight="bold" lengthAdjust="spacing" textLength="26" x="422.9167" y="138.0732">car</text><line style="stroke:#000000;stroke-width:1.0;" x1="313.5" x2="530.8333" y1="146.375" y2="146.375"/><path d="M325.9167,153.8385 C324.3067,153.8385 323,155.1452 323,156.7552 C323,156.9419 323,157.1285 323.035,157.3035 L319.5,160.8385 L319.5,163.1719 L323,163.1719 L323,160.8385 L325.3333,160.8385 L325.3333,159.6719 L325.3683,159.6369 C325.5433,159.6719 325.73,159.6719 325.9167,159.6719 C327.5267,159.6719 328.8333,158.3652 328.8333,156.7552 C328.8333,155.1452 327.5267,153.8385 325.9167,153.8385 M326.5,155.0052 C327.1417,155.0052 327.6667,155.5302 327.6667,156.1719 C327.6667,156.8135 327.1417,157.3385 326.5,157.3385 C325.8583,157.3385 325.3333,156.8135 325.3333,156.1719 C325.3333,155.5302 325.8583,155.0052 326.5,155.0052 " fill="#DAA520" style="stroke:;stroke-width:0.0;stroke-dasharray:;"/><text fill="#000000" font-family="Verdana" font-size="14" lengthAdjust="spacing" textLength="4" x="329.8333" y="163.3701">&#160;</text><text fill="#000000" font-family="Verdana" font-size="14" font-weight="bold" lengthAdjust="spacing" textLength="15" x="333.8333" y="163.3701">id</text><text fill="#000000" font-family="Verdana" font-size="14" lengthAdjust="spacing" textLength="144" x="348.8333" y="163.3701">: INTEGER NOT NULL</text><path d="M323,170.1354 C321.0633,170.1354 319.5,171.6988 319.5,173.6354 C319.5,175.5721 321.0633,177.1354 323,177.1354 C324.9367,177.1354 326.5,175.5721 326.5,173.6354 C326.5,171.6988 324.9367,170.1354 323,170.1354 " fill="#FFFFFF" style="stroke:;stroke-width:0.0;stroke-dasharray:;"/><text fill="#000000" font-family="Verdana" font-size="14" lengthAdjust="spacing" textLength="192" x="333.8333" y="179.667">name: VARCHAR NOT NULL</text></g><!--class id_002--><g id="elem_id_002"><rect codeLine="9" fill="#FFFFFF" height="97.1563" id="id_002" rx="2.5" ry="2.5" style="stroke:#000000;stroke-width:1.0;" width="225.3333" x="36.5" y="97.6094"/><ellipse cx="122.4167" cy="117.7422" fill="#7FFFD4" rx="9" ry="9" style="stroke:#000000;stroke-width:1.0;"/><path d="M122.8542,115.2734 L124.6979,115.2734 L124.6979,116.8672 C124.6979,117.2578 124.7292,117.4297 124.8229,117.5703 C124.9792,117.8203 125.2604,117.9766 125.5573,117.9766 C125.8229,117.9766 126.0729,117.8516 126.2448,117.6328 C126.3854,117.4609 126.401,117.3359 126.401,116.8672 L126.401,113.5859 L117.6354,113.5859 L117.6354,116.8672 C117.6354,117.2578 117.6667,117.4297 117.7448,117.5703 C117.901,117.8359 118.1979,117.9766 118.4792,117.9766 C118.7604,117.9766 119.0104,117.8516 119.1823,117.6328 C119.2917,117.4609 119.3229,117.3203 119.3229,116.8672 L119.3229,115.2734 L121.151,115.2734 L121.151,121.7891 L120.0417,121.7891 C119.6042,121.7891 119.4792,121.8047 119.3229,121.9141 C119.0729,122.0703 118.9167,122.3516 118.9167,122.6484 C118.9167,122.8984 119.0573,123.1641 119.276,123.3203 C119.4323,123.4453 119.651,123.4922 120.0417,123.4922 L123.9792,123.4922 C124.3073,123.4922 124.5729,123.4453 124.6823,123.3672 C124.9479,123.2266 125.0885,122.9297 125.0885,122.6484 C125.0885,122.3672 124.9635,122.1172 124.7292,121.9453 C124.5729,121.8203 124.4323,121.7891 123.9792,121.7891 L122.8542,121.7891 L122.8542,115.2734 Z " fill="#000000"/><text fill="#000000" font-family="Verdana" font-size="12" font-style="italic" lengthAdjust="spacing" textLength="44" x="140.9167" y="113.748">&#171;table&#187;</text><text fill="#000000" font-family="Verdana" font-size="14" font-weight="bold" lengthAdjust="spacing" textLength="46" x="139.9167" y="129.5732">client</text><line style="stroke:#000000;stroke-width:1.0;" x1="37.5" x2="260.8333" y1="137.875" y2="137.875"/><path d="M49.9167,145.3385 C48.3067,145.3385 47,146.6452 47,148.2552 C47,148.4419 47,148.6285 47.035,148.8035 L43.5,152.3385 L43.5,154.6719 L47,154.6719 L47,152.3385 L49.3333,152.3385 L49.3333,151.1719 L49.3683,151.1369 C49.5433,151.1719 49.73,151.1719 49.9167,151.1719 C51.5267,151.1719 52.8333,149.8652 52.8333,148.2552 C52.8333,146.6452 51.5267,145.3385 49.9167,145.3385 M50.5,146.5052 C51.1417,146.5052 51.6667,147.0302 51.6667,147.6719 C51.6667,148.3135 51.1417,148.8385 50.5,148.8385 C49.8583,148.8385 49.3333,148.3135 49.3333,147.6719 C49.3333,147.0302 49.8583,146.5052 50.5,146.5052 " fill="#DAA520" style="stroke:;stroke-width:0.0;stroke-dasharray:;"/><text fill="#000000" font-family="Verdana" font-size="14" lengthAdjust="spacing" textLength="4" x="53.8333" y="154.8701">&#160;</text><text fill="#000000" font-family="Verdana" font-size="14" font-weight="bold" lengthAdjust="spacing" textLength="15" x="57.8333" y="154.8701">id</text><text fill="#000000" font-family="Verdana" font-size="14" lengthAdjust="spacing" textLength="144" x="72.8333" y="154.8701">: INTEGER NOT NULL</text><path d="M47,161.6354 C45.0633,161.6354 43.5,163.1988 43.5,165.1354 C43.5,167.0721 45.0633,168.6354 47,168.6354 C48.9367,168.6354 50.5,167.0721 50.5,165.1354 C50.5,163.1988 48.9367,161.6354 47,161.6354 " fill="#FFFFFF" style="stroke:;stroke-width:0.0;stroke-dasharray:;"/><text fill="#000000" font-family="Verdana" font-size="14" lengthAdjust="spacing" textLength="192" x="57.8333" y="171.167">name: VARCHAR NOT NULL</text><path d="M47,177.9323 C45.0633,177.9323 43.5,179.4956 43.5,181.4323 C43.5,183.369 45.0633,184.9323 47,184.9323 C48.9367,184.9323 50.5,183.369 50.5,181.4323 C50.5,179.4956 48.9367,177.9323 47,177.9323 " fill="#FFFFFF" style="stroke:;stroke-width:0.0;stroke-dasharray:;"/><text fill="#000000" font-family="Verdana" font-size="14" lengthAdjust="spacing" textLength="198" x="57.8333" y="187.4639">phone: VARCHAR NOT NULL</text></g><!--class id_003--><g id="elem_id_003"><rect codeLine="9" fill="#FFFFFF" height="129.75" id="id_003" rx="2.5" ry="2.5" style="stroke:#000000;stroke-width:1.0;" width="235.3333" x="166.5" y="262.6094"/><ellipse cx="254.9167" cy="282.7422" fill="#7FFFD4" rx="9" ry="9" style="stroke:#000000;stroke-width:1.0;"/><path d="M255.3542,280.2734 L257.1979,280.2734 L257.1979,281.8672 C257.1979,282.2578 257.2292,282.4297 257.3229,282.5703 C257.4792,282.8203 257.7604,282.9766 258.0573,282.9766 C258.3229,282.9766 258.5729,282.8516 258.7448,282.6328 C258.8854,282.4609 258.901,282.3359 258.901,281.8672 L258.901,278.5859 L250.1354,278.5859 L250.1354,281.8672 C250.1354,282.2578 250.1667,282.4297 250.2448,282.5703 C250.401,282.8359 250.6979,282.9766 250.9792,282.9766 C251.2604,282.9766 251.5104,282.8516 251.6823,282.6328 C251.7917,282.4609 251.8229,282.3203 251.8229,281.8672 L251.8229,280.2734 L253.651,280.2734 L253.651,286.7891 L252.5417,286.7891 C252.1042,286.7891 251.9792,286.8047 251.8229,286.9141 C251.5729,287.0703 251.4167,287.3516 251.4167,287.6484 C251.4167,287.8984 251.5573,288.1641 251.776,288.3203 C251.9323,288.4453 252.151,288.4922 252.5417,288.4922 L256.4792,288.4922 C256.8073,288.4922 257.0729,288.4453 257.1823,288.3672 C257.4479,288.2266 257.5885,287.9297 257.5885,287.6484 C257.5885,287.3672 257.4635,287.1172 257.2292,286.9453 C257.0729,286.8203 256.9323,286.7891 256.4792,286.7891 L255.3542,286.7891 L255.3542,280.2734 Z " fill="#000000"/><text fill="#000000" font-family="Verdana" font-size="12" font-style="italic" lengthAdjust="spacing" textLength="44" x="275.9167" y="278.748">&#171;table&#187;</text><text fill="#000000" font-family="Verdana" font-size="14" font-weight="bold" lengthAdjust="spacing" textLength="51" x="272.4167" y="294.5732">report</text><line style="stroke:#000000;stroke-width:1.0;" x1="167.5" x2="400.8333" y1="302.875" y2="302.875"/><path d="M177,310.3385 C175.0633,310.3385 173.5,311.9019 173.5,313.8385 C173.5,315.7752 175.0633,317.3385 177,317.3385 C178.9367,317.3385 180.5,315.7752 180.5,313.8385 C180.5,311.9019 178.9367,310.3385 177,310.3385 " fill="#FFFFFF" style="stroke:;stroke-width:0.0;stroke-dasharray:;"/><text fill="#000000" font-family="Verdana" font-size="14" lengthAdjust="spacing" textLength="208" x="187.8333" y="319.8701">sale_on: DATE DEFAULT NOW</text><path d="M179.9167,326.6354 C178.3067,326.6354 177,327.9421 177,329.5521 C177,329.7388 177,329.9254 177.035,330.1004 L173.5,333.6354 L173.5,335.9688 L177,335.9688 L177,333.6354 L179.3333,333.6354 L179.3333,332.4688 L179.3683,332.4338 C179.5433,332.4688 179.73,332.4688 179.9167,332.4688 C181.5267,332.4688 182.8333,331.1621 182.8333,329.5521 C182.8333,327.9421 181.5267,326.6354 179.9167,326.6354 M180.5,327.8021 C181.1417,327.8021 181.6667,328.3271 181.6667,328.9688 C181.6667,329.6104 181.1417,330.1354 180.5,330.1354 C179.8583,330.1354 179.3333,329.6104 179.3333,328.9688 C179.3333,328.3271 179.8583,327.8021 180.5,327.8021 " fill="#C0C0C0" style="stroke:;stroke-width:0.0;stroke-dasharray:;"/><text fill="#000000" font-family="Verdana" font-size="14" lengthAdjust="spacing" textLength="186" x="187.8333" y="336.167">car_id: INTEGER NOT NULL</text><path d="M177,342.9323 C175.0633,342.9323 173.5,344.4956 173.5,346.4323 C173.5,348.369 175.0633,349.9323 177,349.9323 C178.9367,349.9323 180.5,348.369 180.5,346.4323 C180.5,344.4956 178.9367,342.9323 177,342.9323 " fill="#FFFFFF" style="stroke:;stroke-width:0.0;stroke-dasharray:;"/><text fill="#000000" font-family="Verdana" font-size="14" lengthAdjust="spacing" textLength="191" x="187.8333" y="352.4639">number_of_sales: INTEGER</text><path d="M177,359.2292 C175.0633,359.2292 173.5,360.7925 173.5,362.7292 C173.5,364.6658 175.0633,366.2292 177,366.2292 C178.9367,366.2292 180.5,364.6658 180.5,362.7292 C180.5,360.7925 178.9367,359.2292 177,359.2292 " fill="#FFFFFF" style="stroke:;stroke-width:0.0;stroke-dasharray:;"/><text fill="#000000" font-family="Verdana" font-size="14" lengthAdjust="spacing" textLength="129" x="187.8333" y="368.7607">revenue: INTEGER</text><path d="M179.9167,375.526 C178.3067,375.526 177,376.8327 177,378.4427 C177,378.6294 177,378.816 177.035,378.991 L173.5,382.526 L173.5,384.8594 L177,384.8594 L177,382.526 L179.3333,382.526 L179.3333,381.3594 L179.3683,381.3244 C179.5433,381.3594 179.73,381.3594 179.9167,381.3594 C181.5267,381.3594 182.8333,380.0527 182.8333,378.4427 C182.8333,376.8327 181.5267,375.526 179.9167,375.526 M180.5,376.6927 C181.1417,376.6927 181.6667,377.2177 181.6667,377.8594 C181.6667,378.501 181.1417,379.026 180.5,379.026 C179.8583,379.026 179.3333,378.501 179.3333,377.8594 C179.3333,377.2177 179.8583,376.6927 180.5,376.6927 " fill="#C0C0C0" style="stroke:;stroke-width:0.0;stroke-dasharray:;"/><text fill="#000000" font-family="Verdana" font-size="14" lengthAdjust="spacing" textLength="205" x="187.8333" y="385.0576">client_id: INTEGER NOT NULL</text></g><!--link id_001 to id_003--><g id="link_id_001_id_003"><path codeLine="45" d="M312,158.1094 C297.771,158.1094 306.517,177.4424 313,190.1094 C335.741,234.5434 379.648,213.9784 402,258.6094 C416.431,287.4234 441.225,331.1094 409,331.1094 " fill="none" id="id_001-to-id_003" style="stroke:#000000;stroke-width:1.0;"/><polygon fill="#000000" points="403,331.1094,412,335.1094,408,331.1094,412,327.1094,403,331.1094" style="stroke:#000000;stroke-width:1.0;"/></g><!--link id_002 to id_003--><g id="link_id_002_id_003"><path codeLine="46" d="M263,150.1094 C284.56,150.1094 272.601,179.8354 262,198.6094 C237.445,242.0934 191.285,214.9734 167,258.6094 C140.739,305.7954 105.998,380.1094 160,380.1094 " fill="none" id="id_002-to-id_003" style="stroke:#000000;stroke-width:1.0;"/><polygon fill="#000000" points="166,380.1094,157,376.1094,161,380.1094,157,384.1094,166,380.1094" style="stroke:#000000;stroke-width:1.0;"/></g><!--SRC=[lP9TIyCm58Rl_HN7AE9Wy_Ekb4BL-W5ZasxgPScQipKiJMhQ2YBxxsQ9czPPd3VcflJaoVk-oJcxLOOvGY4ebpjWLiOP0kP5zGevLfbYvOwjxnPQfSXgZR1VfkOGFToNDCUk-HNrh6EXvIfeEgSp16At2T3I4U3xCQOLbJE1GU0qKRArxAPDHIS2MrnGLjn49Fuai81_F0aQNd0uxaBuNDESQYwn0rODjdCkvixsqyzFbL3QsxjHWg6C5GlyWpc-1lwntGZWQv1jBAQj5YCkNb1_rxVmDiA6htFvNVnjob6mnThaAUCL6eyS6QSzZQdIR4ipy_3c8Sbb6CFeTdXFN7Kr5EGg78SNuIWYNI2S9ISdfwG3R-iW7rqbATKjXALC1ymUwNXmDnX7Dr4CW-4O1W_zVfFxk2snisRenp2-l0r_e1UR2GGtKxGESVOF8HfqaIdvrymQ2wK_CvzlPbwfbrHWekHIttGaWgleEdpe6uFXK_E06SHbCv8_NRJE9wWJDKsMDkMNWp_p6bzGrjZAsGos7R_5S4-oS3FdXkV8VJoFC-ZrWaRrtFFStJRuirP-bUCT]--></g></svg>